<?xml version="1.0" encoding="UTF-8" standalone="no"?>
<svg
   xmlns:dc="http://purl.org/dc/elements/1.1/"
   xmlns:cc="http://creativecommons.org/ns#"
   xmlns:rdf="http://www.w3.org/1999/02/22-rdf-syntax-ns#"
   xmlns:svg="http://www.w3.org/2000/svg"
   xmlns="http://www.w3.org/2000/svg"
   xmlns:sodipodi="http://sodipodi.sourceforge.net/DTD/sodipodi-0.dtd"
   xmlns:inkscape="http://www.inkscape.org/namespaces/inkscape"
   width="400"
   height="400"
   viewBox="0 0 400 400"
   version="1.1"
   id="svg16"
   sodipodi:docname="bg-angles.svg"
   inkscape:version="1.0.1 (3bc2e813f5, 2020-09-07, custom)"
   inkscape:export-filename="/home/matt/WDW236/coursedocs/images/bg-angles.png"
   inkscape:export-xdpi="96"
   inkscape:export-ydpi="96">
  <metadata
     id="metadata22">
    <rdf:RDF>
      <cc:Work
         rdf:about="">
        <dc:format>image/svg+xml</dc:format>
        <dc:type
           rdf:resource="http://purl.org/dc/dcmitype/StillImage" />
        <dc:title>backgroung/angles</dc:title>
      </cc:Work>
    </rdf:RDF>
  </metadata>
  <defs
     id="defs20">
    <rect
       x="210.78711"
       y="218.81641"
       width="171.15039"
       height="132.47852"
       id="rect33" />
    <rect
       x="38.650391"
       y="29.652344"
       width="101.51367"
       height="109.68359"
       id="rect27" />
  </defs>
  <sodipodi:namedview
     pagecolor="#34d117"
     bordercolor="#666666"
     borderopacity="1"
     objecttolerance="10"
     gridtolerance="10"
     guidetolerance="10"
     inkscape:pageopacity="1"
     inkscape:pageshadow="2"
     inkscape:window-width="1920"
     inkscape:window-height="1016"
     id="namedview18"
     showgrid="false"
     inkscape:zoom="2"
     inkscape:cx="109.75"
     inkscape:cy="198.5"
     inkscape:window-x="0"
     inkscape:window-y="0"
     inkscape:window-maximized="1"
     inkscape:current-layer="layer1"
     inkscape:pagecheckerboard="true" />
  <title
     id="title2">backgroung/angles</title>
  <g
     fill="none"
     fill-rule="evenodd"
     id="g14">
    <path
       fill="#ffffff"
       d="m 140.766,244.872 2.33,-4.035 2.33,4.035 z m -26.133,7.55 2.33,-4.036 2.33,4.036 z m 15.681,26.714 2.329,-4.035 2.33,4.035 z m 26.131,-9.872 2.331,-4.036 2.33,4.036 z m -0.546,13.607 2.33,-4.036 2.33,4.036 z m -45.719,-3.349 2.33,-4.034 2.33,4.034 z m 94.469,-6.192 2.33,-4.037 2.33,4.036 z m -30.393,6.774 2.33,-4.036 2.33,4.036 z m 10.646,-20.712 2.33,-4.036 2.331,4.036 z m 12.391,25.551 2.33,-4.035 2.329,4.035 z m -30.587,-42.975 2.33,-4.035 2.33,4.035 z m 35.038,20.907 2.33,-4.036 2.33,4.036 z"
       id="path4" />
    <path
       d="M 0,264.282 H 222.686 L 111.344,71.428 Z m 111.344,-174.27 95.249,164.98 H 16.094 Z"
       fill="#ffffff"
       id="path6" />
    <path
       d="M 254.602,0 87.937,288.67 h 333.327 z m 0,4.647 162.638,281.702 H 91.96 L 254.603,4.647 Z"
       fill="#ffffff"
       id="path8" />
    <path
       d="m 78.908,152.547 a 0.293,0.293 0 0 1 -0.252,-0.145 l -3.483,-6.035 a 0.288,0.288 0 0 1 0.105,-0.396 0.289,0.289 0 0 1 0.397,0.105 l 3.485,6.035 c 0.08,0.14 0.032,0.317 -0.106,0.398 a 0.295,0.295 0 0 1 -0.146,0.038 m 6.388,11.064 a 0.29,0.29 0 0 1 -0.252,-0.144 l -3.484,-6.035 a 0.29012282,0.29012282 0 1 1 0.502,-0.291 l 3.486,6.035 a 0.29,0.29 0 0 1 -0.252,0.435 m 6.388,11.066 a 0.294,0.294 0 0 1 -0.252,-0.145 l -3.483,-6.035 a 0.2905555,0.2905555 0 1 1 0.503,-0.291 l 3.484,6.035 c 0.08,0.14 0.033,0.317 -0.106,0.398 a 0.295,0.295 0 0 1 -0.146,0.038 m 6.388,11.064 a 0.29,0.29 0 0 1 -0.252,-0.144 l -3.483,-6.035 a 0.2905555,0.2905555 0 1 1 0.503,-0.291 l 3.484,6.035 a 0.29,0.29 0 0 1 -0.252,0.435 m 6.388,11.065 a 0.291,0.291 0 0 1 -0.252,-0.145 l -3.485,-6.035 a 0.291,0.291 0 0 1 0.504,-0.291 l 3.485,6.035 a 0.292,0.292 0 0 1 -0.252,0.436 m 6.388,11.065 a 0.291,0.291 0 0 1 -0.25,-0.144 l -3.486,-6.035 a 0.29,0.29 0 0 1 0.107,-0.397 0.288,0.288 0 0 1 0.397,0.106 l 3.483,6.035 a 0.29,0.29 0 0 1 -0.25,0.435 m 6.387,11.065 a 0.29,0.29 0 0 1 -0.25,-0.145 l -3.486,-6.035 a 0.292,0.292 0 0 1 0.504,-0.291 l 3.483,6.035 a 0.29,0.29 0 0 1 -0.25,0.436 M 123.623,230 a 0.291,0.291 0 0 1 -0.25,-0.144 l -3.487,-6.036 a 0.291,0.291 0 0 1 0.504,-0.291 l 3.484,6.036 a 0.29,0.29 0 0 1 -0.25,0.435 m 6.387,11.066 a 0.291,0.291 0 0 1 -0.25,-0.145 l -3.486,-6.036 a 0.292,0.292 0 0 1 0.107,-0.398 0.292,0.292 0 0 1 0.397,0.107 l 3.484,6.036 a 0.29,0.29 0 0 1 -0.252,0.436 m 6.388,11.064 a 0.291,0.291 0 0 1 -0.25,-0.145 l -3.486,-6.035 a 0.292,0.292 0 0 1 0.106,-0.397 0.293,0.293 0 0 1 0.398,0.106 l 3.484,6.035 a 0.291,0.291 0 0 1 -0.252,0.436 m 6.388,11.064 a 0.292,0.292 0 0 1 -0.252,-0.144 l -3.484,-6.035 a 0.291,0.291 0 1 1 0.503,-0.291 l 3.485,6.035 a 0.291,0.291 0 0 1 -0.252,0.435 m 6.39,11.065 a 0.291,0.291 0 0 1 -0.253,-0.145 l -3.484,-6.035 a 0.289,0.289 0 0 1 0.106,-0.396 0.288,0.288 0 0 1 0.396,0.105 l 3.486,6.035 a 0.292,0.292 0 0 1 -0.252,0.436 m 6.387,11.065 a 0.293,0.293 0 0 1 -0.252,-0.144 l -3.483,-6.035 a 0.29012282,0.29012282 0 0 1 0.502,-0.291 l 3.485,6.035 a 0.292,0.292 0 0 1 -0.106,0.397 0.285,0.285 0 0 1 -0.146,0.038 m 6.39,11.065 a 0.293,0.293 0 0 1 -0.253,-0.145 l -3.483,-6.035 a 0.29,0.29 0 0 1 0.105,-0.397 0.293,0.293 0 0 1 0.398,0.106 l 3.484,6.035 a 0.292,0.292 0 0 1 -0.252,0.436 m 6.388,11.064 a 0.293,0.293 0 0 1 -0.252,-0.144 l -3.484,-6.035 a 0.29,0.29 0 0 1 0.106,-0.397 0.289,0.289 0 0 1 0.397,0.106 l 3.485,6.035 a 0.291,0.291 0 0 1 -0.252,0.435 m 6.387,11.066 a 0.294,0.294 0 0 1 -0.252,-0.145 l -3.483,-6.035 a 0.2905555,0.2905555 0 1 1 0.503,-0.291 l 3.484,6.035 c 0.08,0.14 0.032,0.317 -0.106,0.398 a 0.295,0.295 0 0 1 -0.146,0.038 m 6.39,11.064 a 0.294,0.294 0 0 1 -0.253,-0.144 l -3.484,-6.036 a 0.2909884,0.2909884 0 0 1 0.504,-0.291 l 3.483,6.036 a 0.29,0.29 0 0 1 -0.25,0.435 m 6.387,11.065 a 0.287,0.287 0 0 1 -0.25,-0.145 l -3.487,-6.035 a 0.29,0.29 0 0 1 0.107,-0.397 0.288,0.288 0 0 1 0.397,0.106 l 3.484,6.035 a 0.29,0.29 0 0 1 -0.25,0.436 m 6.386,11.065 a 0.294,0.294 0 0 1 -0.252,-0.145 l -3.484,-6.036 a 0.292,0.292 0 0 1 0.106,-0.397 0.293,0.293 0 0 1 0.398,0.106 l 3.484,6.036 c 0.08,0.14 0.033,0.317 -0.106,0.398 a 0.295,0.295 0 0 1 -0.146,0.038 m 6.39,11.064 a 0.289,0.289 0 0 1 -0.252,-0.144 l -3.485,-6.035 a 0.2909884,0.2909884 0 1 1 0.504,-0.291 l 3.484,6.035 c 0.08,0.14 0.032,0.316 -0.106,0.397 a 0.285,0.285 0 0 1 -0.146,0.038 m 6.388,11.065 a 0.289,0.289 0 0 1 -0.25,-0.145 l -3.487,-6.035 a 0.291,0.291 0 0 1 0.504,-0.291 l 3.485,6.035 a 0.29,0.29 0 0 1 -0.252,0.436"
       fill="#008bb0"
       id="path10" />
    <path
       d="m 315.636,128.441 c -0.05,0 -0.1,-0.012 -0.146,-0.038 a 0.293,0.293 0 0 1 -0.106,-0.398 l 3.484,-6.035 a 0.2909884,0.2909884 0 1 1 0.504,0.291 l -3.485,6.035 a 0.29,0.29 0 0 1 -0.251,0.145 m -4.937,8.55 a 0.291,0.291 0 0 1 -0.251,-0.436 l 3.484,-6.035 a 0.288,0.288 0 0 1 0.397,-0.105 0.29,0.29 0 0 1 0.107,0.396 l -3.486,6.035 a 0.289,0.289 0 0 1 -0.251,0.145 m -4.935,8.551 a 0.292,0.292 0 0 1 -0.252,-0.436 l 3.484,-6.036 a 0.292,0.292 0 1 1 0.504,0.291 l -3.484,6.036 a 0.293,0.293 0 0 1 -0.252,0.145 m -4.937,8.55 a 0.291,0.291 0 0 1 -0.252,-0.435 l 3.486,-6.036 a 0.286,0.286 0 0 1 0.396,-0.106 0.29,0.29 0 0 1 0.107,0.397 l -3.485,6.035 a 0.29,0.29 0 0 1 -0.252,0.144 m -4.936,8.55 c -0.05,0 -0.1,-0.012 -0.146,-0.038 a 0.292,0.292 0 0 1 -0.106,-0.397 l 3.484,-6.036 a 0.292,0.292 0 0 1 0.398,-0.106 0.292,0.292 0 0 1 0.106,0.397 l -3.485,6.036 a 0.292,0.292 0 0 1 -0.251,0.144 m -4.936,8.55 a 0.291,0.291 0 0 1 -0.251,-0.436 l 3.484,-6.035 a 0.2905555,0.2905555 0 1 1 0.503,0.291 l -3.484,6.035 a 0.291,0.291 0 0 1 -0.252,0.145 m -4.936,8.551 c -0.05,0 -0.1,-0.012 -0.146,-0.038 a 0.293,0.293 0 0 1 -0.106,-0.398 l 3.484,-6.036 a 0.291,0.291 0 0 1 0.504,0.291 l -3.484,6.036 a 0.294,0.294 0 0 1 -0.252,0.145 m -4.937,8.55 a 0.291,0.291 0 0 1 -0.252,-0.436 l 3.486,-6.035 a 0.2905555,0.2905555 0 1 1 0.503,0.291 l -3.485,6.035 a 0.291,0.291 0 0 1 -0.252,0.145 m -4.935,8.55 a 0.292,0.292 0 0 1 -0.252,-0.435 l 3.484,-6.036 a 0.2905555,0.2905555 0 1 1 0.503,0.291 l -3.484,6.035 a 0.29,0.29 0 0 1 -0.251,0.144 m -4.937,8.55 a 0.29,0.29 0 0 1 -0.251,-0.435 l 3.484,-6.036 a 0.291,0.291 0 0 1 0.503,0.291 l -3.484,6.036 a 0.294,0.294 0 0 1 -0.252,0.144 m -4.936,8.551 c -0.05,0 -0.1,-0.012 -0.146,-0.038 a 0.293,0.293 0 0 1 -0.106,-0.398 l 3.484,-6.036 a 0.295,0.295 0 0 1 0.398,-0.106 0.292,0.292 0 0 1 0.106,0.397 l -3.484,6.036 a 0.294,0.294 0 0 1 -0.252,0.145 m -4.936,8.55 a 0.292,0.292 0 0 1 -0.252,-0.436 l 3.485,-6.035 a 0.288,0.288 0 0 1 0.397,-0.105 c 0.139,0.08 0.187,0.256 0.106,0.396 l -3.485,6.035 a 0.29,0.29 0 0 1 -0.251,0.145 m -4.936,8.55 a 0.29,0.29 0 0 1 -0.252,-0.436 l 3.484,-6.035 a 0.292,0.292 0 0 1 0.398,-0.107 0.292,0.292 0 0 1 0.105,0.398 l -3.484,6.035 a 0.291,0.291 0 0 1 -0.251,0.145 m -4.937,8.55 a 0.29,0.29 0 0 1 -0.251,-0.435 l 3.484,-6.036 a 0.287,0.287 0 0 1 0.397,-0.106 c 0.139,0.08 0.187,0.257 0.105,0.397 l -3.483,6.035 a 0.292,0.292 0 0 1 -0.252,0.144 m -4.935,8.551 a 0.29,0.29 0 0 1 -0.252,-0.435 l 3.484,-6.037 a 0.291,0.291 0 0 1 0.504,0.291 l -3.484,6.037 a 0.295,0.295 0 0 1 -0.252,0.144 m -4.937,8.55 a 0.292,0.292 0 0 1 -0.252,-0.436 l 3.484,-6.035 a 0.2909884,0.2909884 0 1 1 0.504,0.291 l -3.485,6.035 a 0.29,0.29 0 0 1 -0.251,0.145 m -4.936,8.55 a 0.29,0.29 0 0 1 -0.251,-0.436 l 3.483,-6.035 a 0.288,0.288 0 0 1 0.397,-0.105 c 0.139,0.08 0.187,0.256 0.106,0.396 l -3.485,6.035 a 0.288,0.288 0 0 1 -0.25,0.145 m -4.936,8.55 a 0.292,0.292 0 0 1 -0.252,-0.436 l 3.485,-6.035 a 0.291,0.291 0 0 1 0.397,-0.107 0.292,0.292 0 0 1 0.106,0.398 l -3.484,6.035 a 0.293,0.293 0 0 1 -0.252,0.145 m -4.937,8.55 a 0.291,0.291 0 0 1 -0.252,-0.435 l 3.485,-6.036 a 0.2909884,0.2909884 0 1 1 0.504,0.291 l -3.485,6.036 a 0.29,0.29 0 0 1 -0.252,0.144 m -4.936,8.55 a 0.29,0.29 0 0 1 -0.252,-0.435 l 3.484,-6.036 a 0.293,0.293 0 0 1 0.398,-0.106 0.292,0.292 0 0 1 0.106,0.397 l -3.485,6.036 a 0.291,0.291 0 0 1 -0.251,0.144 m -4.936,8.55 a 0.291,0.291 0 0 1 -0.251,-0.436 l 3.484,-6.035 a 0.291,0.291 0 0 1 0.503,0.291 l -3.484,6.035 a 0.291,0.291 0 0 1 -0.252,0.145 m -4.936,8.55 c -0.05,0 -0.1,-0.012 -0.146,-0.038 a 0.293,0.293 0 0 1 -0.106,-0.398 l 3.485,-6.035 a 0.288,0.288 0 0 1 0.397,-0.105 0.29,0.29 0 0 1 0.106,0.396 l -3.484,6.035 a 0.294,0.294 0 0 1 -0.252,0.145 m -4.937,8.551 a 0.291,0.291 0 0 1 -0.252,-0.436 l 3.485,-6.036 a 0.292,0.292 0 0 1 0.397,-0.107 0.292,0.292 0 0 1 0.107,0.398 l -3.485,6.036 a 0.29,0.29 0 0 1 -0.252,0.145 m -4.935,8.55 a 0.29,0.29 0 0 1 -0.251,-0.435 l 3.483,-6.036 a 0.2905555,0.2905555 0 1 1 0.503,0.291 l -3.484,6.035 a 0.29,0.29 0 0 1 -0.251,0.144 m -4.937,8.55 a 0.289,0.289 0 0 1 -0.251,-0.435 l 3.484,-6.036 a 0.2905555,0.2905555 0 1 1 0.503,0.291 l -3.484,6.036 a 0.293,0.293 0 0 1 -0.252,0.144 m -4.936,8.55 c -0.05,0 -0.1,-0.012 -0.146,-0.038 a 0.293,0.293 0 0 1 -0.106,-0.398 l 3.485,-6.035 a 0.2905555,0.2905555 0 0 1 0.503,0.291 l -3.484,6.035 a 0.294,0.294 0 0 1 -0.252,0.145 m -4.936,8.551 a 0.292,0.292 0 0 1 -0.252,-0.436 l 3.485,-6.036 a 0.2909884,0.2909884 0 1 1 0.504,0.291 l -3.485,6.036 a 0.293,0.293 0 0 1 -0.252,0.145 m -1.531,2.651 a 0.29,0.29 0 0 1 -0.251,-0.435 l 0.079,-0.137 a 0.29012282,0.29012282 0 1 1 0.502,0.291 l -0.08,0.137 a 0.291,0.291 0 0 1 -0.25,0.144 M 45.73,396.376 a 0.068,0.068 0 0 1 -0.036,-0.01 0.07,0.07 0 0 1 -0.027,-0.098 L 179.023,165.281 a 0.07,0.07 0 0 1 0.099,-0.026 0.072,0.072 0 0 1 0.025,0.099 L 45.793,396.34 a 0.07,0.07 0 0 1 -0.063,0.036 M 33.89,373.182 a 0.068,0.068 0 0 1 -0.035,-0.01 0.07,0.07 0 0 1 -0.026,-0.098 L 167.184,142.086 a 0.07,0.07 0 0 1 0.099,-0.026 0.072,0.072 0 0 1 0.026,0.099 L 33.953,373.146 a 0.07,0.07 0 0 1 -0.062,0.036 M 21.694,356.63 a 0.068,0.068 0 0 1 -0.036,-0.01 0.07,0.07 0 0 1 -0.026,-0.097 L 154.988,125.536 c 0.018,-0.036 0.062,-0.048 0.1,-0.026 a 0.072,0.072 0 0 1 0.025,0.099 L 21.756,356.595 a 0.07,0.07 0 0 1 -0.062,0.036 m -10.452,-24.39 a 0.068,0.068 0 0 1 -0.036,-0.01 0.07,0.07 0 0 1 -0.026,-0.098 L 144.535,101.145 a 0.07,0.07 0 0 1 0.1,-0.026 0.072,0.072 0 0 1 0.025,0.1 L 11.304,332.204 a 0.07,0.07 0 0 1 -0.062,0.036"
       fill="#008bb0"
       id="path12" />
  </g>
  <g
     inkscape:groupmode="layer"
     id="layer1"
     inkscape:label="background">
    <text
       xml:space="preserve"
       id="text25"
       style="font-style:normal;font-weight:normal;font-size:96px;line-height:1.25;font-family:sans-serif;white-space:pre;shape-inside:url(#rect27);fill:#000000;fill-opacity:1;stroke:none;"
       transform="matrix(2.9442563,0,0,2.7957412,-93.464806,-80.09988)"><tspan
         x="38.650391"
         y="114.58984"><tspan
           style="shape-inside:url(#rect27)">D</tspan></tspan></text>
    <text
       xml:space="preserve"
       id="text31"
       style="font-style:normal;font-weight:normal;font-size:40px;line-height:1.25;font-family:sans-serif;white-space:pre;shape-inside:url(#rect33);fill:#000000;fill-opacity:1;stroke:none;" />
    <text
       xml:space="preserve"
       style="font-style:normal;font-weight:normal;font-size:232.76px;line-height:1.25;font-family:sans-serif;fill:#000000;fill-opacity:1;stroke:none;stroke-width:5.819"
       x="211.51663"
       y="394.46906"
       id="text39"
       transform="scale(1.036888,0.96442434)"><tspan
         sodipodi:role="line"
         id="tspan37"
         x="211.51663"
         y="394.46906"
         style="stroke-width:5.819">H</tspan></text>
  </g>
</svg>
